<svg width="192" height="192" viewBox="0 0 192 192" fill="none" xmlns="http://www.w3.org/2000/svg">
<rect width="192" height="192" rx="24" fill="#004aad"/>
<path d="M48 72C48 63.1634 55.1634 56 64 56H128C136.837 56 144 63.1634 144 72V120C144 128.837 136.837 136 128 136H64C55.1634 136 48 128.837 48 120V72Z" fill="white"/>
<path d="M64 80H128V88H64V80Z" fill="#004aad"/>
<path d="M64 96H104V104H64V96Z" fill="#004aad"/>
<path d="M64 112H88V120H64V112Z" fill="#004aad"/>
<circle cx="120" cy="112" r="8" fill="#28a745"/>
<path d="M60 144C60 141.791 61.7909 140 64 140H80C82.2091 140 84 141.791 84 144V156C84 158.209 82.2091 160 80 160H64C61.7909 160 60 158.209 60 156V144Z" fill="#ffc107"/>
<path d="M108 144C108 141.791 109.791 140 112 140H128C130.209 140 132 141.791 132 144V156C132 158.209 130.209 160 128 160H112C109.791 160 108 158.209 108 156V144Z" fill="#17a2b8"/>
<circle cx="96" cy="40" r="8" fill="white"/>
<path d="M88 40L96 32L104 40" stroke="white" stroke-width="2" fill="none"/>
</svg>